# xmcd
#
# Track frame offsets:
# 150
# 18950
# 39562
#
# Disc length: 765 seconds
#
#
# Revision: 3
# Processed by: cddbd v1.5.1PL2 Copyright (c) Steve Scherf et al.
# Submitted via: FreeRIP 2.942 
#
DISCID=1902fb03
DTITLE=Joe's Project - PIANO
DYEAR=1994
DGENRE=Jpop
TTITLE0=PIANO
TTITLE1=PIANO STANDARD
TTITLE2=PIANO (Original Karaoke)
EXTD=
EXTT0=
EXTT1=
EXTT2=
PLAYORDER=
